<?xml version="1.0" standalone="no"?>
<!DOCTYPE svg PUBLIC "-//W3C//DTD SVG 20010904//EN"
 "http://www.w3.org/TR/2001/REC-SVG-20010904/DTD/svg10.dtd">
<svg version="1.0" xmlns="http://www.w3.org/2000/svg"
 width="256.000000pt" height="256.000000pt" viewBox="0 0 256.000000 256.000000"
 preserveAspectRatio="xMidYMid meet">

<g transform="translate(0.000000,256.000000) scale(0.100000,-0.100000)"
fill="#000000" stroke="none">
<path d="M963 2223 c-23 -8 -57 -28 -74 -44 -27 -25 -30 -34 -25 -62 12 -60
30 -68 182 -83 183 -18 253 -38 414 -119 70 -35 100 -43 100 -26 0 18 -117
156 -180 214 -36 32 -100 76 -143 98 -72 36 -86 39 -156 38 -42 0 -95 -7 -118
-16z m282 -174 l40 -19 -35 5 c-19 3 -62 14 -95 25 l-60 19 55 -6 c30 -3 73
-14 95 -24z"/>
<path d="M1695 1996 c-5 -18 -2 -56 8 -100 9 -39 20 -90 23 -113 4 -24 10 -40
15 -37 17 10 9 121 -15 200 -22 72 -24 76 -31 50z"/>
<path d="M1036 1930 c-305 -37 -476 -161 -476 -346 0 -39 5 -51 34 -80 19 -19
42 -34 52 -34 36 0 83 40 154 130 84 106 166 178 285 250 60 36 85 57 83 68
-4 20 -36 23 -132 12z m-216 -225 c-41 -41 -76 -75 -78 -75 -2 0 5 14 15 31
16 29 116 119 131 119 4 0 -27 -34 -68 -75z"/>
<path d="M1107 1768 c-16 -8 -15 -12 9 -44 25 -32 26 -36 10 -53 -15 -17 -15
-19 0 -31 11 -10 20 -11 33 -3 25 16 56 -9 42 -34 -7 -15 -5 -22 11 -32 17
-10 22 -10 32 5 17 23 41 13 41 -17 0 -31 34 -39 42 -10 5 20 43 31 43 13 0
-5 6 -16 13 -26 16 -23 50 -11 42 15 -4 12 1 22 16 30 19 10 25 8 38 -10 15
-19 19 -20 36 -7 18 13 19 15 3 33 -14 15 -14 21 -3 36 11 16 17 17 35 7 18
-10 24 -9 31 1 14 23 10 35 -16 47 -32 15 -32 30 1 42 38 15 24 35 -29 38
l-46 3 6 -35 c7 -46 -16 -82 -65 -103 -71 -30 -190 14 -265 96 -34 39 -47 47
-60 39z"/>
<path d="M1002 1705 c-39 -49 -117 -198 -136 -264 -19 -65 -21 -158 -4 -215
17 -58 108 -147 172 -169 109 -37 206 -8 206 61 0 21 -19 46 -76 102 -41 41
-87 98 -102 125 -24 45 -27 61 -27 155 0 58 4 135 9 173 10 78 2 84 -42 32z"/>
<path d="M1621 1391 c-23 -45 -29 -67 -22 -74 8 -8 11 -7 11 5 0 8 12 36 26
62 14 25 24 52 21 58 -2 7 -18 -16 -36 -51z"/>
<path d="M434 874 c23 -22 22 -160 -1 -186 -15 -17 -14 -18 30 -18 26 0 47 5
47 10 0 6 -4 10 -10 10 -6 0 -10 37 -10 90 0 74 3 91 18 99 13 8 5 10 -36 11
-49 0 -52 -1 -38 -16z"/>
<path d="M553 879 c14 -8 17 -25 17 -99 0 -53 -4 -90 -10 -90 -5 0 -10 -4 -10
-10 0 -5 17 -10 38 -10 33 1 35 2 19 14 -15 12 -17 26 -15 86 l3 71 63 -85
c35 -47 70 -86 78 -86 11 0 14 21 14 100 0 84 3 101 18 109 13 8 8 10 -27 11
-39 0 -42 -2 -27 -13 14 -10 16 -25 14 -74 l-3 -61 -55 74 c-53 71 -57 74 -95
74 -32 -1 -37 -3 -22 -11z"/>
<path d="M848 874 c-15 -8 -32 -23 -38 -34 -13 -24 -13 -96 0 -121 23 -42 113
-63 173 -40 19 8 23 15 20 35 -3 15 0 33 7 41 11 13 6 15 -36 15 -38 -1 -45
-3 -31 -11 24 -14 23 -66 -2 -74 -25 -8 -68 10 -80 34 -6 11 -11 40 -11 66 0
89 88 131 128 60 10 -18 11 -17 12 13 l0 32 -57 0 c-32 -1 -70 -7 -85 -16z"/>
<path d="M1053 880 c14 -9 17 -26 17 -97 0 -70 -3 -88 -17 -99 -16 -12 -9 -13
50 -14 90 0 133 19 153 66 20 47 12 93 -22 125 -22 21 -37 24 -112 27 -66 2
-83 0 -69 -8z m144 -32 c12 -14 18 -36 18 -68 0 -60 -24 -90 -72 -90 l-33 0 0
89 c0 61 4 91 12 93 22 8 56 -4 75 -24z"/>
<path d="M1304 874 c23 -22 22 -160 -1 -186 -15 -17 -13 -18 75 -18 73 0 92 3
92 14 0 8 3 21 6 30 3 9 1 16 -4 16 -6 0 -14 -9 -17 -20 -5 -16 -15 -20 -51
-20 l-44 0 0 45 c0 41 2 45 25 45 14 0 28 -7 31 -15 10 -25 24 -17 24 14 0 33
-15 49 -24 26 -3 -8 -17 -15 -31 -15 -23 0 -25 4 -25 40 0 40 0 40 40 40 27 0
42 -6 49 -17 9 -15 10 -14 11 10 l0 27 -86 0 c-78 0 -84 -1 -70 -16z"/>
<path d="M1513 879 c14 -8 17 -25 17 -96 0 -70 -3 -88 -17 -99 -15 -11 -5 -13
70 -14 l87 0 0 32 c0 32 0 32 -16 10 -11 -15 -25 -22 -50 -22 l-34 0 0 90 c0
74 3 91 18 99 13 8 4 10 -38 10 -42 0 -51 -2 -37 -10z"/>
<path d="M1751 876 c-69 -39 -67 -162 4 -194 14 -7 48 -12 76 -12 42 0 51 3
58 23 13 34 3 38 -24 11 -28 -28 -36 -29 -74 -9 -34 17 -41 32 -41 91 0 83 75
124 120 67 l22 -28 -4 30 c-3 29 -5 30 -58 32 -32 2 -65 -3 -79 -11z"/>
<path d="M1975 790 c-21 -55 -41 -100 -46 -100 -5 0 -9 -4 -9 -10 0 -5 14 -10
30 -10 29 0 42 14 19 22 -7 2 -7 12 0 31 9 23 16 27 50 27 33 0 40 -4 45 -26
4 -15 2 -32 -5 -40 -10 -12 -4 -14 35 -14 25 0 46 5 46 10 0 6 -4 10 -9 10 -5
0 -13 10 -17 23 -4 12 -20 57 -36 100 -42 108 -55 105 -103 -23z m68 -22 c-7
-14 -53 -9 -53 6 0 7 5 28 12 47 l11 33 17 -39 c10 -22 15 -43 13 -47z"/>
<path d="M1201 581 c-8 -5 -11 -16 -7 -26 3 -10 1 -24 -5 -31 -20 -25 -3 -44
39 -42 34 1 38 4 34 24 -3 14 -9 21 -18 17 -11 -4 -14 3 -12 27 3 35 -8 45
-31 31z m29 -22 c0 -5 -4 -9 -10 -9 -5 0 -10 7 -10 16 0 8 5 12 10 9 6 -3 10
-10 10 -16z m-2 -57 c2 -7 -3 -12 -12 -12 -9 0 -16 7 -16 16 0 17 22 14 28 -4z"/>
<path d="M1337 572 c-19 -21 -21 -45 -7 -73 13 -23 52 -25 70 -4 14 17 0 21
-17 4 -21 -21 -45 -2 -41 33 3 31 5 33 38 31 33 -1 34 0 16 13 -26 19 -40 18
-59 -4z"/>
<path d="M1783 535 c0 -33 2 -45 4 -27 2 18 2 45 0 60 -2 15 -4 0 -4 -33z"/>
<path d="M450 530 c0 -27 5 -50 10 -50 6 0 10 23 10 50 0 28 -4 50 -10 50 -5
0 -10 -22 -10 -50z"/>
<path d="M1818 568 c-10 -27 4 -88 20 -88 12 0 13 3 4 12 -14 14 -16 45 -3 50
5 2 4 11 -4 21 -9 13 -14 14 -17 5z"/>
<path d="M513 552 c-19 -3 -23 -10 -23 -38 0 -19 5 -34 10 -34 6 0 10 14 10
30 0 20 5 30 15 30 10 0 15 -10 15 -30 0 -16 5 -30 10 -30 14 0 12 56 -2 67
-7 5 -23 7 -35 5z"/>
<path d="M589 544 c-18 -21 -7 -59 19 -62 12 -2 22 -8 22 -14 0 -6 -9 -8 -20
-5 -22 6 -28 -8 -7 -16 28 -10 47 13 47 57 0 39 -3 44 -25 48 -14 3 -30 -1
-36 -8z m41 -29 c0 -28 -24 -34 -34 -9 -8 20 1 34 20 34 8 0 14 -10 14 -25z"/>
<path d="M680 546 c-20 -26 -8 -61 23 -64 15 -2 27 1 27 6 0 6 -9 8 -20 5 -11
-3 -20 0 -20 6 0 6 9 11 20 11 24 0 28 35 4 44 -21 8 -20 8 -34 -8z m40 -16
c0 -5 -7 -10 -15 -10 -8 0 -15 5 -15 10 0 6 7 10 15 10 8 0 15 -4 15 -10z"/>
<path d="M779 553 c-17 -4 -33 -73 -17 -73 4 0 8 14 8 30 0 20 5 30 15 30 10
0 15 -10 15 -30 0 -16 5 -30 10 -30 15 0 12 67 -2 72 -7 2 -20 3 -29 1z"/>
<path d="M890 546 c-20 -26 -8 -61 23 -64 15 -2 27 1 27 6 0 6 -9 8 -20 5 -11
-3 -20 0 -20 6 0 6 11 11 25 11 29 0 32 12 9 34 -19 20 -28 20 -44 2z m40 -16
c0 -5 -7 -10 -15 -10 -8 0 -15 5 -15 10 0 6 7 10 15 10 8 0 15 -4 15 -10z"/>
<path d="M1080 550 c-10 -6 -6 -9 11 -12 l24 -4 -27 -12 c-38 -16 -37 -42 2
-42 27 0 30 3 30 34 0 35 -17 50 -40 36z m25 -50 c-3 -5 -10 -10 -16 -10 -5 0
-9 5 -9 10 0 6 7 10 16 10 8 0 12 -4 9 -10z"/>
<path d="M1440 546 c-6 -8 -10 -25 -8 -38 2 -18 9 -23 33 -23 24 0 31 5 33 24
3 15 -3 30 -14 38 -23 17 -29 16 -44 -1z m40 -31 c0 -25 -23 -35 -35 -15 -10
16 2 40 20 40 9 0 15 -9 15 -25z"/>
<path d="M1543 552 c-19 -3 -23 -10 -23 -38 0 -19 5 -34 10 -34 6 0 10 14 10
30 0 42 28 40 32 -2 3 -33 3 -33 9 -6 8 34 -9 55 -38 50z"/>
<path d="M1620 550 c-16 -10 -6 -40 15 -40 8 0 15 -5 15 -11 0 -6 -9 -9 -20
-6 -11 3 -20 1 -20 -5 0 -14 53 -5 58 9 2 7 -8 18 -22 24 -26 12 -27 33 -1 22
8 -3 15 -3 15 0 0 10 -27 15 -40 7z"/>
<path d="M1876 544 c-27 -27 -16 -64 20 -64 33 0 47 31 28 58 -18 26 -27 27
-48 6z m39 -29 c0 -11 -8 -21 -17 -23 -14 -3 -18 3 -18 23 0 20 4 26 18 23 9
-2 17 -12 17 -23z"/>
<path d="M1973 553 c-8 -3 -12 -20 -12 -41 1 -27 3 -30 6 -12 2 14 11 30 19
37 16 12 7 23 -13 16z"/>
<path d="M2060 550 c-12 -8 -11 -10 8 -10 27 0 29 -16 2 -23 -33 -8 -25 -37
10 -37 27 0 30 3 30 34 0 22 -6 36 -16 40 -19 7 -16 8 -34 -4z m35 -50 c-3 -5
-13 -10 -21 -10 -8 0 -12 5 -9 10 3 6 13 10 21 10 8 0 12 -4 9 -10z"/>
<path d="M840 515 c0 -19 5 -35 10 -35 6 0 10 16 10 35 0 19 -4 35 -10 35 -5
0 -10 -16 -10 -35z"/>
<path d="M971 513 c1 -27 3 -31 6 -13 2 14 12 31 21 38 14 11 13 12 -6 12 -19
0 -22 -5 -21 -37z"/>
<path d="M1020 515 c0 -19 5 -35 10 -35 6 0 10 16 10 35 0 19 -4 35 -10 35 -5
0 -10 -16 -10 -35z"/>
<path d="M1691 518 c-1 -36 1 -38 29 -38 28 0 30 2 29 38 -1 36 -2 36 -8 7 -3
-17 -13 -30 -21 -30 -8 0 -18 13 -21 30 -6 29 -7 29 -8 -7z"/>
<path d="M2010 515 c0 -19 5 -35 10 -35 6 0 10 16 10 35 0 19 -4 35 -10 35 -5
0 -10 -16 -10 -35z"/>
</g>
</svg>
